<svg width="25" height="25" viewBox="0 0 25 25" fill="none" xmlns="http://www.w3.org/2000/svg">
<path d="M12.9287 6.55357C11.8216 6.55357 10.7859 6.83929 9.82157 7.41072C8.893 7.94643 8.143 8.69643 7.57157 9.66072C7.03585 10.5893 6.768 11.6071 6.768 12.7143C6.768 13.8214 7.03585 14.8571 7.57157 15.8214C8.143 16.75 8.893 17.5 9.82157 18.0714C10.7859 18.6071 11.8216 18.875 12.9287 18.875C14.0359 18.875 15.0537 18.6071 15.9823 18.0714C16.9466 17.5 17.6966 16.75 18.2323 15.8214C18.8037 14.8571 19.0894 13.8214 19.0894 12.7143C19.0894 11.6071 18.8037 10.5893 18.2323 9.66072C17.6966 8.69643 16.9466 7.94643 15.9823 7.41072C15.0537 6.83929 14.0359 6.55357 12.9287 6.55357ZM12.9287 16.7321C11.8216 16.7321 10.8751 16.3393 10.0894 15.5536C9.30371 14.7679 8.91085 13.8214 8.91085 12.7143C8.91085 11.6071 9.30371 10.6607 10.0894 9.875C10.8751 9.08929 11.8216 8.69643 12.9287 8.69643C14.0359 8.69643 14.9823 9.08929 15.768 9.875C16.5537 10.6607 16.9466 11.6071 16.9466 12.7143C16.9466 13.8214 16.5537 14.7679 15.768 15.5536C14.9823 16.3393 14.0359 16.7321 12.9287 16.7321ZM20.8037 6.28572C20.768 6.67857 20.6073 7.01786 20.3216 7.30357C20.0716 7.58929 19.7501 7.73214 19.3573 7.73214C18.9644 7.73214 18.6251 7.58929 18.3394 7.30357C18.0537 7.01786 17.9109 6.67857 17.9109 6.28572C17.9109 5.89286 18.0537 5.55357 18.3394 5.26786C18.6251 4.98214 18.9644 4.83929 19.3573 4.83929C19.7501 4.83929 20.0894 4.98214 20.3751 5.26786C20.6609 5.55357 20.8037 5.89286 20.8037 6.28572ZM24.8751 7.73214C24.8037 6.69643 24.643 5.80357 24.393 5.05357C24.0716 4.16072 23.5716 3.39286 22.893 2.75C22.2501 2.07143 21.4823 1.57143 20.5894 1.25C19.8394 1 18.9466 0.857144 17.9109 0.82143C16.9109 0.750001 15.2501 0.714287 12.9287 0.714287C10.6073 0.714287 8.92871 0.750001 7.893 0.82143C6.893 0.857144 6.018 1 5.268 1.25C4.37514 1.57143 3.58943 2.07143 2.91085 2.75C2.268 3.39286 1.78585 4.16072 1.46443 5.05357C1.21443 5.80357 1.05371 6.69643 0.982282 7.73214C0.946568 8.73214 0.928711 10.3929 0.928711 12.7143C0.928711 15.0357 0.946568 16.7143 0.982282 17.75C1.05371 18.75 1.21443 19.625 1.46443 20.375C1.78585 21.2679 2.268 22.0536 2.91085 22.7321C3.58943 23.375 4.37514 23.8393 5.268 24.125C6.018 24.4107 6.893 24.5714 7.893 24.6071C8.92871 24.6786 10.6073 24.7143 12.9287 24.7143C15.2501 24.7143 16.9109 24.6786 17.9109 24.6071C18.9466 24.5714 19.8394 24.4286 20.5894 24.1786C21.4823 23.8571 22.2501 23.375 22.893 22.7321C23.5716 22.0536 24.0716 21.2679 24.393 20.375C24.643 19.625 24.7859 18.75 24.8216 17.75C24.893 16.7143 24.9287 15.0357 24.9287 12.7143C24.9287 10.3929 24.9109 8.73214 24.8751 7.73214ZM22.3037 19.7857C21.8751 20.8571 21.1073 21.625 20.0001 22.0893C19.4287 22.3036 18.4644 22.4464 17.1073 22.5179C16.3573 22.5536 15.2501 22.5714 13.7859 22.5714H12.0716C10.643 22.5714 9.53585 22.5536 8.75014 22.5179C7.42871 22.4464 6.46442 22.3036 5.85728 22.0893C4.78585 21.6607 4.018 20.8929 3.55371 19.7857C3.33943 19.1786 3.19657 18.2143 3.12514 16.8929C3.08943 16.1071 3.07157 15 3.07157 13.5714V11.8571C3.07157 10.4286 3.08943 9.32143 3.12514 8.53572C3.19657 7.17857 3.33943 6.21429 3.55371 5.64286C3.98228 4.53572 4.75014 3.76786 5.85728 3.33929C6.46442 3.125 7.42871 2.98214 8.75014 2.91072C9.53585 2.875 10.643 2.85714 12.0716 2.85714H13.7859C15.2144 2.85714 16.3216 2.875 17.1073 2.91072C18.4644 2.98214 19.4287 3.125 20.0001 3.33929C21.1073 3.76786 21.8751 4.53572 22.3037 5.64286C22.518 6.21429 22.6609 7.17857 22.7323 8.53572C22.768 9.28572 22.7859 10.3929 22.7859 11.8571V13.5714C22.7859 15 22.768 16.1071 22.7323 16.8929C22.6609 18.2143 22.518 19.1786 22.3037 19.7857Z" fill="black"/>
</svg>
