<svg width="210" height="45" viewBox="0 0 210 45" fill="none" xmlns="http://www.w3.org/2000/svg">
<path d="M73.6436 26.0242L74.6215 26.9296C71.9414 30.9497 68.1749 32.0362 64.7705 32.0362C58.7585 32.0362 53 28.2334 53 19.3603C53 10.451 58.7585 6.64821 64.7705 6.64821C68.1386 6.64821 71.0722 7.44498 72.5571 7.87959L69.9495 11.1753C66.7262 7.22768 62.6337 6.90173 60.0623 7.95202C56.513 9.40069 53.2535 13.7829 56.8752 22.5836C59.5915 29.2113 63.3218 31.3481 66.5089 31.3481C70.3116 31.3481 72.9555 28.3783 73.6436 26.0242ZM91.2501 28.5956C91.2501 30.5513 92.8798 30.7324 92.8798 32.0362H91.3587C88.6062 32.0362 88.0992 30.5513 88.0992 28.7405C88.0992 28.7405 88.0992 28.7043 88.0992 28.6318V28.5956C87.8819 29.1027 87.5922 29.6097 87.1938 30.0443C86.4332 30.9497 84.9846 32.1087 82.6667 32.1449C78.8277 32.2535 74.699 30.4427 74.699 25.8069C74.699 21.1349 78.8277 19.3241 82.6667 19.4328C83.8618 19.469 84.8397 19.7587 85.6002 20.1933C84.4051 19.1792 82.9926 18.3825 81.6888 17.7668C78.9001 16.3905 76.1839 15.7024 76.1477 15.7024L76.039 15.6662C78.2482 11.8634 83.391 11.9721 83.391 11.9721C83.391 11.9721 91.2501 11.791 91.2501 19.1068C91.2501 25.5172 91.2501 28.5594 91.2501 28.5956ZM88.0992 26.5313V25.0464C88.0992 23.8874 87.7008 22.7647 86.9765 21.8593C86.9765 21.8231 86.9403 21.7869 86.9041 21.7869C86.1797 20.9176 84.8759 19.9036 82.6667 19.9036C79.8418 19.9036 77.8498 22.1128 77.8498 25.7707V25.8069C77.8498 29.4648 79.8418 31.674 82.6667 31.674C84.8759 31.674 86.1797 30.66 86.9041 29.7908C86.9403 29.7908 86.9765 29.7546 86.9765 29.7183C87.7008 28.8129 88.0992 27.6902 88.0992 26.5313ZM88.0992 22.7647V19.143C88.0992 19.1068 88.0992 19.1068 88.0992 19.1068C88.0992 16.2095 87.8095 12.3343 83.391 12.3343C80.4212 12.3343 79.4796 14.9419 79.6245 16.463C80.3126 16.7165 81.1094 17.0424 81.8699 17.4408C83.5359 18.2376 84.9483 19.143 85.9986 20.0484C86.9765 20.9176 87.7008 21.8231 88.0992 22.7647ZM99.724 12.3343C97.0077 12.3343 95.3055 13.8554 95.2331 15.9922C95.0158 21.0625 107.221 20.3744 107.547 26.3864C107.692 29.2837 104.975 32.0362 100.05 32.0362C96.2472 32.0362 92.3719 30.2616 92.1184 27.1469H95.6677C95.6677 30.0443 97.6958 31.674 100.05 31.674C102.839 31.674 104.613 30.1167 104.613 27.8713C104.613 23.0182 92.553 23.8512 92.2633 17.4046C92.1546 14.6159 94.8709 11.9721 99.7602 11.9721C103.635 11.9721 107.004 14.0364 107.004 16.1008H103.563C103.563 14.3986 102.658 12.3343 99.724 12.3343ZM124.497 28.5956C124.497 30.5513 126.127 30.7324 126.127 32.0362H124.606C121.854 32.0362 121.347 30.5513 121.347 28.7405C121.347 28.7405 121.347 28.7043 121.347 28.6318V28.5956C121.129 29.1027 120.84 29.6097 120.441 30.0443C119.681 30.9497 118.232 32.1087 115.914 32.1449C112.075 32.2535 107.946 30.4427 107.946 25.8069C107.946 21.1349 112.075 19.3241 115.914 19.4328C117.109 19.469 118.087 19.7587 118.848 20.1933C117.652 19.1792 116.24 18.3825 114.936 17.7668C112.147 16.3905 109.431 15.7024 109.395 15.7024L109.286 15.6662C111.496 11.8634 116.638 11.9721 116.638 11.9721C116.638 11.9721 124.497 11.791 124.497 19.1068C124.497 25.5172 124.497 28.5594 124.497 28.5956ZM121.347 26.5313V25.0464C121.347 23.8874 120.948 22.7647 120.224 21.8593C120.224 21.8231 120.188 21.7869 120.151 21.7869C119.427 20.9176 118.123 19.9036 115.914 19.9036C113.089 19.9036 111.097 22.1128 111.097 25.7707V25.8069C111.097 29.4648 113.089 31.674 115.914 31.674C118.123 31.674 119.427 30.66 120.151 29.7908C120.188 29.7908 120.224 29.7546 120.224 29.7183C120.948 28.8129 121.347 27.6902 121.347 26.5313ZM121.347 22.7647V19.143C121.347 19.1068 121.347 19.1068 121.347 19.1068C121.347 16.2095 121.057 12.3343 116.638 12.3343C113.669 12.3343 112.727 14.9419 112.872 16.463C113.56 16.7165 114.357 17.0424 115.117 17.4408C116.783 18.2376 118.196 19.143 119.246 20.0484C120.224 20.9176 120.948 21.8231 121.347 22.7647ZM152 25.1912C152.145 29.7546 147.98 32.1449 142.475 32.0724C138.745 32.0362 135.196 31.0584 133.059 30.1167L134.037 26.2415C135.051 26.7123 136.065 31.6378 142.475 31.7103C146.206 31.7465 149.103 30.0805 148.958 26.495C148.705 20.1571 133.059 21.7144 133.168 13.2759C133.204 9.11096 137.188 6.53956 142.801 6.61199C146.387 6.68443 149.501 7.51741 151.167 8.38662L150.624 12.0807C149.538 11.3202 149.212 7.08281 142.801 6.97416C139.723 6.93795 136.427 8.5677 136.5 12.2618C136.608 18.4187 151.783 17.1873 152 25.1912ZM162.094 11.9721C167.853 11.9721 171.801 16.2095 171.801 22.0042C171.801 27.8351 167.853 32.0362 162.094 32.0362C156.3 32.0362 152.388 27.8351 152.388 22.0042C152.388 16.2095 156.3 11.9721 162.094 11.9721ZM168.36 19.976C166.585 14.5073 162.927 11.5737 159.088 12.8051C155.249 14.0727 154.018 18.5998 155.793 24.0323C155.793 24.0323 155.793 24.0323 155.793 24.0685C155.829 24.0685 155.829 24.0685 155.829 24.0685C157.567 29.501 161.225 32.4708 165.064 31.2032C168.939 29.9719 170.135 25.4448 168.36 19.976ZM189.851 28.5956C189.851 30.5513 191.517 30.7324 191.517 32.0362H189.96C188.294 32.0362 187.461 31.493 187.063 30.66C185.614 31.5654 183.839 32.0362 181.884 32.0362C176.125 32.0362 172.177 27.8351 172.177 22.0042C172.177 16.2095 176.125 11.9721 181.884 11.9721C183.694 11.9721 185.36 12.4067 186.737 13.1672C186.737 12.6964 186.737 12.298 186.737 12.0807C186.737 10.125 185.071 9.94394 185.071 8.64014L189.562 6.61199H189.851C189.851 6.61199 189.851 28.5232 189.851 28.5956ZM184.31 31.3843C185.867 30.9859 186.737 29.7183 186.737 27.5091C186.737 25.6621 186.737 22.1852 186.737 18.8533C186.737 16.463 185.541 14.29 183.622 13.2035C182.354 12.4791 180.942 12.2618 179.457 12.6602C175.509 13.6743 174.061 18.129 175.473 23.6701H175.509C176.922 29.2475 180.399 32.3984 184.31 31.3843ZM207.174 28.5956C207.174 30.5513 208.803 30.7324 208.803 32.0362H207.282C204.53 32.0362 204.023 30.5513 204.023 28.7405C204.023 28.7405 204.023 28.7043 204.023 28.6318V28.5956C203.806 29.1027 203.516 29.6097 203.117 30.0443C202.357 30.9497 200.908 32.1087 198.59 32.1449C194.751 32.2535 190.623 30.4427 190.623 25.8069C190.623 21.1349 194.751 19.3241 198.59 19.4328C199.785 19.469 200.763 19.7587 201.524 20.1933C200.329 19.1792 198.916 18.3825 197.612 17.7668C194.824 16.3905 192.107 15.7024 192.071 15.7024L191.963 15.6662C194.172 11.8634 199.315 11.9721 199.315 11.9721C199.315 11.9721 207.174 11.791 207.174 19.1068C207.174 25.5172 207.174 28.5594 207.174 28.5956ZM204.023 26.5313V25.0464C204.023 23.8874 203.624 22.7647 202.9 21.8593C202.9 21.8231 202.864 21.7869 202.828 21.7869C202.103 20.9176 200.8 19.9036 198.59 19.9036C195.765 19.9036 193.773 22.1128 193.773 25.7707V25.8069C193.773 29.4648 195.765 31.674 198.59 31.674C200.8 31.674 202.103 30.66 202.828 29.7908C202.864 29.7908 202.9 29.7546 202.9 29.7183C203.624 28.8129 204.023 27.6902 204.023 26.5313ZM204.023 22.7647V19.143C204.023 19.1068 204.023 19.1068 204.023 19.1068C204.023 16.2095 203.733 12.3343 199.315 12.3343C196.345 12.3343 195.403 14.9419 195.548 16.463C196.236 16.7165 197.033 17.0424 197.794 17.4408C199.459 18.2376 200.872 19.143 201.922 20.0484C202.9 20.9176 203.624 21.8231 204.023 22.7647Z" fill="#1E1E1E"/>
<path d="M37.0449 18.0269L35.5717 17.745C34.5219 17.547 33.3052 17.3191 32.1064 17.0551C29.1242 16.4012 27.4124 13.4137 28.7902 10.6602C28.8975 10.4502 29.0049 10.2523 29.1123 10.0603C29.2267 9.86419 29.2736 9.63554 29.2455 9.40989C29.2175 9.18424 29.1161 8.97423 28.9572 8.8125C28.8014 8.661 28.6013 8.56402 28.3864 8.53592C28.1715 8.50783 27.9534 8.55012 27.7643 8.65653C26.1599 9.55038 24.4242 10.5702 22.4441 10.5702C20.4639 10.5702 20.3446 4.19929 19.8973 1.50574C19.8496 1.23579 19.8078 0.983833 19.772 0.755872C19.7358 0.546023 19.6277 0.355543 19.4665 0.217476C19.3052 0.0794098 19.101 0.00246835 18.8893 0C18.6786 0.0038547 18.4758 0.0814235 18.3158 0.21937C18.1558 0.357317 18.0485 0.547022 18.0125 0.755872C17.9708 0.983833 17.929 1.23579 17.8873 1.50574C17.434 4.22328 17.3386 10.5702 15.3465 10.5702C13.3543 10.5702 11.6306 9.55038 10.0262 8.65053C9.83638 8.54691 9.61886 8.5062 9.40467 8.53421C9.19047 8.56222 8.99054 8.65751 8.83334 8.8065C8.67798 8.97048 8.57951 9.18059 8.55264 9.40548C8.52576 9.63036 8.57193 9.85796 8.68423 10.0543C8.79756 10.2523 8.90492 10.4502 9.00631 10.6542C10.39 13.4137 8.69616 16.4012 5.69607 17.0551C4.5032 17.3191 3.31032 17.547 2.23077 17.745C1.68204 17.847 1.18103 17.937 0.751597 18.0269C0.537484 18.0703 0.345174 18.1876 0.207939 18.3585C0.0707045 18.5294 -0.002822 18.7431 8.28913e-05 18.9628C-0.00108355 19.187 0.0758204 19.4045 0.21745 19.5776C0.359079 19.7508 0.556498 19.8686 0.775455 19.9106L1.37189 20.0246C3.75765 20.4685 7.60468 21.2244 9.86518 22.2142C10.0904 22.3099 10.2743 22.4834 10.3837 22.7033C10.493 22.9233 10.5207 23.1754 10.4616 23.414C10.1279 25.0255 9.54423 26.5742 8.73194 28.0032C8.61744 28.1888 8.5676 28.4075 8.59028 28.6247C8.61296 28.8419 8.70687 29.0454 8.8572 29.203C9.01494 29.3524 9.21704 29.4456 9.43251 29.4684C9.64798 29.4911 9.86493 29.4422 10.0501 29.329C11.4739 28.4873 13.0223 27.8797 14.6367 27.5293C14.9016 27.472 15.1776 27.4989 15.4266 27.6064C15.6756 27.7139 15.8852 27.8966 16.0264 28.1292C16.8495 29.449 17.4519 31.8306 17.8157 38.6094C17.929 40.6251 18.0245 42.2928 18.096 43.2466C18.1125 43.4535 18.2056 43.6467 18.3569 43.7878C18.5083 43.9289 18.7068 44.0077 18.9132 44.0085C19.1201 44.0078 19.3194 43.9292 19.4717 43.7882C19.624 43.6473 19.7184 43.4541 19.7362 43.2466C19.8078 42.2928 19.9032 40.6251 20.0166 38.6094C20.3923 31.8306 20.9947 29.455 21.8059 28.1292C21.9451 27.8947 22.1544 27.7103 22.404 27.6026C22.6536 27.4949 22.9306 27.4692 23.1956 27.5293C24.8043 27.8798 26.3468 28.4874 27.7643 29.329C27.9491 29.4432 28.1663 29.4927 28.382 29.4699C28.5977 29.4472 28.7999 29.3533 28.9572 29.203C29.1057 29.0444 29.1984 28.8411 29.221 28.6244C29.2436 28.4077 29.1949 28.1895 29.0824 28.0032C28.274 26.5678 27.6963 25.0129 27.3707 23.396C27.3103 23.1573 27.3374 22.9048 27.4469 22.6845C27.5564 22.4642 27.741 22.2909 27.9671 22.1962C30.2276 21.1824 34.0925 20.4565 36.4544 20.0066L37.0509 19.8926C37.2698 19.8506 37.4672 19.7328 37.6089 19.5597C37.7505 19.3865 37.8274 19.169 37.8262 18.9448C37.8225 18.7243 37.7424 18.5119 37.5998 18.3444C37.4572 18.1769 37.261 18.0646 37.0449 18.0269ZM18.9132 22.0103H18.8654C14.6904 22.0103 11.3563 20.4865 11.3563 18.6088C11.3563 17.3311 12.907 16.2092 15.2093 15.6093C15.2093 15.6993 15.2093 15.7893 15.2093 15.8793C15.2093 16.8641 15.5982 17.8087 16.2906 18.5051C16.983 19.2014 17.9221 19.5927 18.9012 19.5927C19.8794 19.5927 20.8175 19.2023 21.5097 18.5072C22.2019 17.8121 22.5916 16.8691 22.5932 15.8853C22.5932 15.7893 22.5932 15.6993 22.5932 15.6093C24.8895 16.2092 26.4462 17.3011 26.4462 18.6088C26.4283 20.4865 23.0644 22.0103 18.9132 22.0103Z" fill="#1E1E1E"/>
</svg>
