<svg width="440" height="72" viewBox="0 0 440 72" fill="none" xmlns="http://www.w3.org/2000/svg">
<path d="M104.76 48.3064L107.164 50.5327C100.574 60.4175 91.3129 63.0891 82.942 63.0891C68.1593 63.0891 54 53.7386 54 31.9208C54 10.0139 68.1593 0.663456 82.942 0.663456C91.2238 0.663456 98.437 2.62261 102.088 3.69123L95.6764 11.795C87.7508 2.08829 77.6879 1.28682 71.3652 3.86934C62.6381 7.43143 54.6234 18.2067 63.5286 39.8464C70.2075 56.143 79.3799 61.3971 87.2165 61.3971C96.567 61.3971 103.068 54.0948 104.76 48.3064ZM148.052 54.6291C148.052 59.4379 152.059 59.8832 152.059 63.0891H148.319C141.551 63.0891 140.304 59.4379 140.304 54.9853C140.304 54.9853 140.304 54.8962 140.304 54.7181V54.6291C139.77 55.8758 139.057 57.1226 138.078 58.1912C136.208 60.4175 132.646 63.2672 126.946 63.3562C117.507 63.6234 107.355 59.1708 107.355 47.7721C107.355 36.2843 117.507 31.8317 126.946 32.0989C129.885 32.1879 132.289 32.9004 134.16 33.969C131.221 31.4755 127.748 29.5164 124.542 28.0025C117.685 24.6185 111.006 22.9265 110.917 22.9265L110.65 22.8375C116.082 13.487 128.727 13.7541 128.727 13.7541C128.727 13.7541 148.052 13.3089 148.052 31.2974C148.052 47.0597 148.052 54.54 148.052 54.6291ZM140.304 49.5531V45.902C140.304 43.0523 139.325 40.2917 137.543 38.0654C137.543 37.9763 137.454 37.8873 137.365 37.8873C135.584 35.75 132.378 33.2566 126.946 33.2566C120 33.2566 115.102 38.6887 115.102 47.683V47.7721C115.102 56.7663 120 62.1985 126.946 62.1985C132.378 62.1985 135.584 59.7051 137.365 57.5678C137.454 57.5678 137.543 57.4788 137.543 57.3897C139.325 55.1634 140.304 52.4028 140.304 49.5531ZM140.304 40.2917V31.3865C140.304 31.2974 140.304 31.2974 140.304 31.2974C140.304 24.1732 139.592 14.6447 128.727 14.6447C121.425 14.6447 119.11 21.0564 119.466 24.7966C121.158 25.42 123.117 26.2214 124.987 27.201C129.084 29.1602 132.557 31.3865 135.139 33.6128C137.543 35.75 139.325 37.9763 140.304 40.2917ZM168.888 14.6447C162.209 14.6447 158.023 18.3848 157.845 23.6389C157.311 36.1062 187.322 34.4142 188.123 49.1969C188.479 56.3211 181.8 63.0891 169.689 63.0891C160.339 63.0891 150.81 58.7255 150.187 51.067H158.914C158.914 58.1912 163.901 62.1985 169.689 62.1985C176.546 62.1985 180.91 58.3693 180.91 52.848C180.91 40.9151 151.255 42.9633 150.543 27.112C150.276 20.2549 156.955 13.7541 168.977 13.7541C178.505 13.7541 186.787 18.8301 186.787 23.9061H178.327C178.327 19.7206 176.101 14.6447 168.888 14.6447ZM229.802 54.6291C229.802 59.4379 233.81 59.8832 233.81 63.0891H230.069C223.301 63.0891 222.055 59.4379 222.055 54.9853C222.055 54.9853 222.055 54.8962 222.055 54.7181V54.6291C221.52 55.8758 220.808 57.1226 219.828 58.1912C217.958 60.4175 214.396 63.2672 208.697 63.3562C199.257 63.6234 189.105 59.1708 189.105 47.7721C189.105 36.2843 199.257 31.8317 208.697 32.0989C211.636 32.1879 214.04 32.9004 215.91 33.969C212.971 31.4755 209.498 29.5164 206.292 28.0025C199.435 24.6185 192.757 22.9265 192.667 22.9265L192.4 22.8375C197.833 13.487 210.478 13.7541 210.478 13.7541C210.478 13.7541 229.802 13.3089 229.802 31.2974C229.802 47.0597 229.802 54.54 229.802 54.6291ZM222.055 49.5531V45.902C222.055 43.0523 221.075 40.2917 219.294 38.0654C219.294 37.9763 219.205 37.8873 219.116 37.8873C217.335 35.75 214.129 33.2566 208.697 33.2566C201.751 33.2566 196.853 38.6887 196.853 47.683V47.7721C196.853 56.7663 201.751 62.1985 208.697 62.1985C214.129 62.1985 217.335 59.7051 219.116 57.5678C219.205 57.5678 219.294 57.4788 219.294 57.3897C221.075 55.1634 222.055 52.4028 222.055 49.5531ZM222.055 40.2917V31.3865C222.055 31.2974 222.055 31.2974 222.055 31.2974C222.055 24.1732 221.342 14.6447 210.478 14.6447C203.176 14.6447 200.86 21.0564 201.217 24.7966C202.908 25.42 204.868 26.2214 206.738 27.201C210.834 29.1602 214.307 31.3865 216.89 33.6128C219.294 35.75 221.075 37.9763 222.055 40.2917ZM297.428 46.2582C297.785 57.4788 287.544 63.3562 274.008 63.1781C264.835 63.0891 256.108 60.6846 250.854 58.3693L253.258 48.8407C255.752 49.9984 258.245 62.1095 274.008 62.2876C283.18 62.3766 290.304 58.2802 289.948 49.4641C289.325 33.8799 250.854 37.7092 251.121 16.96C251.21 6.71901 261.006 0.396302 274.809 0.574404C283.625 0.752507 291.284 2.80071 295.38 4.93796L294.044 14.0213C291.373 12.1512 290.571 1.73208 274.809 1.46493C267.24 1.37587 259.136 5.38323 259.314 14.4665C259.581 29.6054 296.894 26.5776 297.428 46.2582ZM322.248 13.7541C336.407 13.7541 346.114 24.1732 346.114 38.4216C346.114 52.759 336.407 63.0891 322.248 63.0891C308 63.0891 298.382 52.759 298.382 38.4216C298.382 24.1732 308 13.7541 322.248 13.7541ZM337.654 33.4347C333.291 19.9878 324.296 12.7746 314.857 15.8023C305.417 18.9192 302.39 30.0507 306.753 43.4085C306.753 43.4085 306.753 43.4085 306.753 43.4976C306.842 43.4976 306.842 43.4976 306.842 43.4976C311.117 56.8554 320.111 64.1577 329.55 61.0409C339.079 58.0131 342.018 46.8816 337.654 33.4347ZM390.498 54.6291C390.498 59.4379 394.595 59.8832 394.595 63.0891H390.765C386.669 63.0891 384.621 61.7533 383.641 59.7051C380.079 61.9314 375.716 63.0891 370.907 63.0891C356.748 63.0891 347.041 52.759 347.041 38.4216C347.041 24.1732 356.748 13.7541 370.907 13.7541C375.359 13.7541 379.456 14.8228 382.84 16.6929C382.84 15.5352 382.84 14.5556 382.84 14.0213C382.84 9.21247 378.743 8.76721 378.743 5.56133L389.786 0.574404H390.498C390.498 0.574404 390.498 54.451 390.498 54.6291ZM376.873 61.4861C380.703 60.5065 382.84 57.3897 382.84 51.9575C382.84 47.4159 382.84 38.8669 382.84 30.6741C382.84 24.7966 379.901 19.4535 375.181 16.7819C372.065 15.0009 368.591 14.4665 364.94 15.4461C355.234 17.9396 351.672 28.893 355.145 42.518H355.234C358.707 56.232 367.256 63.9796 376.873 61.4861ZM433.092 54.6291C433.092 59.4379 437.099 59.8832 437.099 63.0891H433.359C426.591 63.0891 425.344 59.4379 425.344 54.9853C425.344 54.9853 425.344 54.8962 425.344 54.7181V54.6291C424.81 55.8758 424.097 57.1226 423.118 58.1912C421.248 60.4175 417.686 63.2672 411.986 63.3562C402.547 63.6234 392.395 59.1708 392.395 47.7721C392.395 36.2843 402.547 31.8317 411.986 32.0989C414.925 32.1879 417.33 32.9004 419.2 33.969C416.261 31.4755 412.788 29.5164 409.582 28.0025C402.725 24.6185 396.046 22.9265 395.957 22.9265L395.69 22.8375C401.122 13.487 413.767 13.7541 413.767 13.7541C413.767 13.7541 433.092 13.3089 433.092 31.2974C433.092 47.0597 433.092 54.54 433.092 54.6291ZM425.344 49.5531V45.902C425.344 43.0523 424.365 40.2917 422.584 38.0654C422.584 37.9763 422.495 37.8873 422.405 37.8873C420.624 35.75 417.419 33.2566 411.986 33.2566C405.04 33.2566 400.142 38.6887 400.142 47.683V47.7721C400.142 56.7663 405.04 62.1985 411.986 62.1985C417.419 62.1985 420.624 59.7051 422.405 57.5678C422.495 57.5678 422.584 57.4788 422.584 57.3897C424.365 55.1634 425.344 52.4028 425.344 49.5531ZM425.344 40.2917V31.3865C425.344 31.2974 425.344 31.2974 425.344 31.2974C425.344 24.1732 424.632 14.6447 413.767 14.6447C406.465 14.6447 404.15 21.0564 404.506 24.7966C406.198 25.42 408.157 26.2214 410.027 27.201C414.124 29.1602 417.597 31.3865 420.179 33.6128C422.584 35.75 424.365 37.9763 425.344 40.2917Z" fill="white"/>
<path d="M40.8694 19.888L39.2441 19.577C38.0859 19.3586 36.7436 19.1071 35.421 18.8158C32.1309 18.0945 30.2424 14.7985 31.7624 11.7607C31.8809 11.5291 31.9993 11.3107 32.1178 11.0989C32.2441 10.8826 32.2957 10.6303 32.2648 10.3814C32.2339 10.1324 32.122 9.90072 31.9467 9.72229C31.7748 9.55515 31.554 9.44816 31.317 9.41716C31.0799 9.38617 30.8393 9.43283 30.6307 9.55022C28.8606 10.5363 26.9458 11.6615 24.7612 11.6615C22.5766 11.6615 22.445 4.63282 21.9514 1.6612C21.8988 1.36337 21.8527 1.0854 21.8133 0.833907C21.7733 0.602394 21.6541 0.392249 21.4762 0.239928C21.2983 0.0876079 21.073 0.00272318 20.8394 0C20.6069 0.00425265 20.3832 0.0898295 20.2067 0.242017C20.0302 0.394206 19.9119 0.603496 19.8721 0.833907C19.8261 1.0854 19.78 1.36337 19.7339 1.6612C19.2338 4.65929 19.1286 11.6615 16.9308 11.6615C14.733 11.6615 12.8314 10.5363 11.0613 9.5436C10.8519 9.42928 10.6119 9.38437 10.3756 9.41527C10.1393 9.44617 9.91871 9.5513 9.74528 9.71568C9.57388 9.89658 9.46525 10.1284 9.4356 10.3765C9.40595 10.6246 9.45688 10.8757 9.58078 11.0923C9.7058 11.3107 9.82425 11.5291 9.93611 11.7541C11.4627 14.7985 9.59394 18.0945 6.28413 18.8158C4.9681 19.1071 3.65207 19.3586 2.46107 19.577C1.85569 19.6895 1.30296 19.7887 0.829191 19.888C0.592973 19.9358 0.380809 20.0652 0.229406 20.2538C0.078004 20.4423 -0.00311334 20.6781 9.14489e-05 20.9205C-0.00119541 21.1678 0.083648 21.4078 0.239899 21.5988C0.396149 21.7898 0.61395 21.9198 0.855512 21.9662L1.51353 22.0919C4.14558 22.5817 8.38977 23.4156 10.8836 24.5076C11.1322 24.6131 11.335 24.8045 11.4557 25.0472C11.5763 25.2899 11.6068 25.568 11.5417 25.8313C11.1735 27.6091 10.5296 29.3177 9.63342 30.8943C9.50709 31.099 9.45211 31.3402 9.47713 31.5799C9.50215 31.8196 9.60575 32.044 9.77161 32.2179C9.94563 32.3827 10.1686 32.4856 10.4063 32.5107C10.644 32.5358 10.8834 32.4818 11.0876 32.3569C12.6585 31.4283 14.3667 30.758 16.1478 30.3714C16.44 30.3082 16.7446 30.3379 17.0193 30.4565C17.294 30.575 17.5252 30.7766 17.6809 31.0332C18.589 32.4893 19.2536 35.1167 19.655 42.5954C19.78 44.8192 19.8853 46.6591 19.9642 47.7114C19.9824 47.9396 20.0851 48.1527 20.2521 48.3084C20.419 48.4641 20.6381 48.551 20.8657 48.5519C21.0941 48.5511 21.3139 48.4644 21.4819 48.3089C21.65 48.1534 21.7541 47.9402 21.7738 47.7114C21.8527 46.6591 21.958 44.8192 22.083 42.5954C22.4976 35.1167 23.1622 32.4959 24.0571 31.0332C24.2107 30.7745 24.4416 30.5711 24.717 30.4523C24.9923 30.3334 25.298 30.3051 25.5903 30.3714C27.3651 30.7581 29.0668 31.4284 30.6307 32.3569C30.8346 32.4829 31.0742 32.5375 31.3122 32.5124C31.5501 32.4872 31.7732 32.3837 31.9467 32.2179C32.1105 32.0429 32.2128 31.8186 32.2377 31.5795C32.2627 31.3404 32.209 31.0997 32.0849 30.8943C31.193 29.3107 30.5556 27.5952 30.1964 25.8114C30.1298 25.5481 30.1596 25.2694 30.2805 25.0264C30.4013 24.7834 30.605 24.5922 30.8544 24.4877C33.3482 23.3692 37.6122 22.5684 40.2179 22.0721L40.8759 21.9463C41.1175 21.8999 41.3353 21.77 41.4915 21.579C41.6478 21.388 41.7326 21.148 41.7313 20.9006C41.7272 20.6573 41.6389 20.4231 41.4816 20.2383C41.3242 20.0534 41.1077 19.9296 40.8694 19.888ZM20.8657 24.2826H20.8131C16.207 24.2826 12.5287 22.6015 12.5287 20.53C12.5287 19.1203 14.2395 17.8827 16.7795 17.2208C16.7795 17.3201 16.7795 17.4194 16.7795 17.5187C16.7795 18.6052 17.2086 19.6472 17.9724 20.4155C18.7363 21.1838 19.7723 21.6154 20.8526 21.6154C21.9317 21.6154 22.9667 21.1847 23.7304 20.4178C24.494 19.651 24.9239 18.6107 24.9257 17.5253C24.9257 17.4194 24.9257 17.3201 24.9257 17.2208C27.459 17.8827 29.1764 19.0872 29.1764 20.53C29.1567 22.6015 25.4455 24.2826 20.8657 24.2826Z" fill="white"/>
</svg>
