<svg width="1152" height="1341" viewBox="0 0 1152 1341" fill="none" xmlns="http://www.w3.org/2000/svg">
<path d="M1128.2 549.011L1083.34 540.424C1051.37 534.395 1014.31 527.453 977.801 519.414C886.978 499.5 834.846 408.516 876.806 324.657C880.076 318.262 883.346 312.233 886.615 306.387C890.101 300.414 891.528 293.451 890.674 286.579C889.82 279.707 886.733 273.311 881.892 268.385C877.149 263.771 871.053 260.818 864.51 259.962C857.966 259.106 851.322 260.394 845.563 263.635C796.701 290.857 743.842 321.916 683.535 321.916C623.229 321.916 619.596 127.89 605.973 45.8575C604.519 37.6361 603.248 29.9627 602.158 23.0201C601.055 16.6292 597.763 10.8281 592.853 6.62325C587.942 2.41843 581.723 0.0751739 575.275 0C568.857 0.117395 562.681 2.47976 557.808 6.68093C552.935 10.8821 549.669 16.6596 548.573 23.0201C547.301 29.9627 546.03 37.6361 544.758 45.8575C530.953 128.62 528.047 321.916 467.377 321.916C406.707 321.916 354.212 290.857 305.349 263.452C299.567 260.297 292.943 259.057 286.42 259.91C279.896 260.763 273.807 263.665 269.02 268.203C264.288 273.196 261.289 279.595 260.471 286.444C259.653 293.293 261.059 300.225 264.479 306.204C267.93 312.233 271.2 318.262 274.288 324.474C316.429 408.516 264.842 499.5 173.474 519.414C137.145 527.453 100.816 534.395 67.9381 540.424C51.2267 543.53 35.9684 546.271 22.8899 549.011C16.3691 550.332 10.5123 553.903 6.33279 559.108C2.15331 564.312 -0.0859443 570.823 0.00252446 577.512C-0.0329995 584.34 2.30912 590.966 6.62244 596.238C10.9358 601.511 16.9482 605.099 23.6165 606.379L41.7811 609.85C114.439 623.37 231.601 646.39 300.445 676.535C307.305 679.449 312.905 684.732 316.236 691.431C319.566 698.131 320.408 705.807 318.609 713.075C308.446 762.154 290.67 809.319 265.932 852.84C262.445 858.493 260.927 865.151 261.617 871.767C262.308 878.383 265.168 884.58 269.746 889.38C274.551 893.929 280.705 896.768 287.268 897.461C293.83 898.154 300.437 896.663 306.076 893.217C349.439 867.582 396.594 849.079 445.761 838.407C453.828 836.661 462.236 837.482 469.819 840.755C477.402 844.028 483.785 849.593 488.085 856.677C513.152 896.871 531.498 969.402 542.578 1175.85C546.03 1237.24 548.936 1288.03 551.116 1317.08C551.617 1323.38 554.453 1329.26 559.062 1333.56C563.671 1337.86 569.716 1340.26 576.001 1340.28C582.305 1340.26 588.373 1337.87 593.011 1333.57C597.65 1329.28 600.524 1323.4 601.068 1317.08C603.248 1288.03 606.154 1237.24 609.606 1175.85C621.049 969.402 639.395 897.053 664.099 856.677C668.339 849.533 674.714 843.92 682.315 840.639C689.916 837.358 698.354 836.576 706.423 838.407C755.417 849.08 802.393 867.585 845.563 893.217C851.193 896.694 857.806 898.202 864.376 897.508C870.946 896.815 877.104 893.957 881.892 889.38C886.416 884.548 889.238 878.357 889.927 871.757C890.616 865.157 889.134 858.512 885.707 852.84C861.086 809.125 843.491 761.769 833.575 712.527C831.737 705.258 832.561 697.566 835.896 690.857C839.231 684.148 844.855 678.87 851.739 675.987C920.583 645.111 1038.29 623.005 1110.22 609.302L1128.39 605.831C1135.05 604.551 1141.07 600.963 1145.38 595.69C1149.69 590.417 1152.04 583.792 1152 576.964C1151.89 570.248 1149.45 563.782 1145.1 558.68C1140.76 553.577 1134.78 550.158 1128.2 549.011ZM576.001 670.324H574.548C447.396 670.324 345.856 623.918 345.856 566.733C345.856 527.818 393.084 493.653 463.199 475.384C463.199 478.124 463.199 480.865 463.199 483.605C463.199 513.599 475.045 542.364 496.132 563.572C517.218 584.781 545.817 596.696 575.638 596.696C605.427 596.696 633.999 584.806 655.08 563.637C676.161 542.468 688.028 513.75 688.076 483.788C688.076 480.865 688.076 478.124 688.076 475.384C758.01 493.653 805.42 526.905 805.42 566.733C804.875 623.918 702.427 670.324 576.001 670.324Z" fill="#262626"/>
</svg>
